<svg xmlns="http://www.w3.org/2000/svg" width="220" height="200" viewBox="0 0 220 200">
  <g transform="translate(110,100)">
    <rect x="-72" y="-72" width="144" height="144" rx="20" fill="#c2dcc9"/>
    <rect x="-72" y="-72" width="144" height="144" rx="20" fill="#aecdb6" transform="rotate(45)"/>
    <circle r="76" fill="none" stroke="#9bc0a4" stroke-width="2" opacity="0.55"/>
  </g>
  <!-- rehal legs (crossed) -->
  <g stroke-linecap="round">
    <line x1="78" y1="152" x2="140" y2="94" stroke="#7c4a22" stroke-width="9"/>
    <line x1="142" y1="152" x2="80" y2="94" stroke="#8a5a2b" stroke-width="9"/>
  </g>
  <!-- open book -->
  <path d="M58 92 q52 -17 52 -17 q0 0 52 17 l0 30 q-52 -17 -52 -17 q0 0 -52 17 z"
        fill="#f5f0e3" stroke="#c9a227" stroke-width="2.5"/>
  <line x1="110" y1="75" x2="110" y2="105" stroke="#c9a227" stroke-width="3"/>
  <g stroke="#9bb7a2" stroke-width="1.5" opacity="0.85">
    <line x1="70" y1="92" x2="100" y2="83"/><line x1="70" y1="100" x2="100" y2="91"/>
    <line x1="120" y1="83" x2="150" y2="92"/><line x1="120" y1="91" x2="150" y2="100"/>
  </g>
</svg>
