<svg xmlns="http://www.w3.org/2000/svg" width="240" height="240" viewBox="0 0 240 240">
  <defs>
    <linearGradient id="sky3" x1="0" y1="0" x2="0" y2="1">
      <stop offset="0%" stop-color="#f59e0b"/>
      <stop offset="45%" stop-color="#b45309"/>
      <stop offset="100%" stop-color="#7c2d12"/>
    </linearGradient>
  </defs>
  <rect width="240" height="240" fill="url(#sky3)"/>
  <circle cx="120" cy="70" r="40" fill="#fde68a" opacity="0.5"/>
  <circle cx="120" cy="70" r="26" fill="#fff7e0" opacity="0.8"/>
  <!-- Badshahi-style red mosque: 3 domes + minarets -->
  <g fill="#5a1f0c">
    <rect x="40" y="110" width="14" height="78"/>
    <rect x="186" y="110" width="14" height="78"/>
    <path d="M120 96 q-30 0 -30 40 l60 0 q0 -40 -30 -40 z"/>
    <path d="M76 120 q-18 0 -18 26 l36 0 q0 -26 -18 -26 z"/>
    <path d="M164 120 q-18 0 -18 26 l36 0 q0 -26 -18 -26 z"/>
    <rect x="58" y="146" width="124" height="42"/>
  </g>
  <g fill="#8a2f12">
    <rect x="58" y="146" width="124" height="42"/>
  </g>
  <g fill="#dbb94b">
    <circle cx="120" cy="92" r="4"/><circle cx="47" cy="106" r="3"/><circle cx="193" cy="106" r="3"/>
  </g>
  <rect x="0" y="188" width="240" height="52" fill="#4a1708"/>
  <rect x="0" y="188" width="240" height="3" fill="#b45309" opacity="0.6"/>
</svg>
