<svg xmlns="http://www.w3.org/2000/svg" width="240" height="240" viewBox="0 0 240 240">
  <defs>
    <linearGradient id="sky4" x1="0" y1="0" x2="0" y2="1">
      <stop offset="0%" stop-color="#22d3ee"/>
      <stop offset="50%" stop-color="#0e7490"/>
      <stop offset="100%" stop-color="#3730a3"/>
    </linearGradient>
  </defs>
  <rect width="240" height="240" fill="url(#sky4)"/>
  <circle cx="182" cy="58" r="20" fill="#e0f2fe" opacity="0.85"/>
  <g fill="#ffffff" opacity="0.6">
    <circle cx="40" cy="44" r="1.4"/><circle cx="80" cy="30" r="1.1"/><circle cx="210" cy="100" r="1.3"/>
  </g>
  <!-- Blue Mosque: central dome + 4 slim minarets -->
  <g fill="#1e1b4b">
    <rect x="34" y="92" width="9" height="96"/>
    <rect x="68" y="104" width="8" height="84"/>
    <rect x="164" y="104" width="8" height="84"/>
    <rect x="197" y="92" width="9" height="96"/>
    <path d="M120 88 q-34 0 -34 46 l68 0 q0 -46 -34 -46 z"/>
    <path d="M88 116 q-16 0 -16 24 l32 0 q0 -24 -16 -24z"/>
    <path d="M152 116 q-16 0 -16 24 l32 0 q0 -24 -16 -24z"/>
    <rect x="78" y="140" width="84" height="48"/>
  </g>
  <g fill="#312e81">
    <rect x="78" y="140" width="84" height="48"/>
  </g>
  <g fill="#dbb94b">
    <circle cx="120" cy="84" r="4"/><circle cx="38" cy="88" r="2.5"/><circle cx="201" cy="88" r="2.5"/>
  </g>
  <rect x="0" y="188" width="240" height="52" fill="#1e1b4b"/>
  <rect x="0" y="188" width="240" height="3" fill="#0e7490" opacity="0.6"/>
</svg>
